2.5Hzhigh3min_grf.mot
version=1
nRows=20
nColumns 19
inDegrees=yes
endheader
time	1_ground_force_vx	1_ground_force_vy	1_ground_force_vz	1_ground_force_px	1_ground_force_py	1_ground_force_pz	1_ground_torque_x	1_ground_torque_y	1_ground_torque_z	2_ground_force_vx	2_ground_force_vy	2_ground_force_vz	2_ground_force_px	2_ground_force_py	2_ground_force_pz	2_ground_torque_x	2_ground_torque_y	2_ground_torque_z
            2.502500	           -0.228891	            0.720232	            0.187084	           -0.233013	            0.005581	           -0.255695	            0.235512	           -0.092084	           -0.104769	           -0.233544	           -0.185329	            0.093299	           -0.232311	            0.006130	           -0.833667	           -0.112524	           -0.056989	           -0.037855
            2.503000	           -0.137613	            1.081371	            0.050835	           -0.233013	            0.005581	           -0.255695	            0.241105	           -0.073478	           -0.119605	           -0.186070	           -0.368973	           -0.001234	           -0.232311	            0.006130	           -0.833667	           -0.074758	           -0.104318	            0.018511
            2.503500	           -0.366453	            0.900471	            0.188199	           -0.233013	            0.005581	           -0.255695	            0.197827	           -0.036694	           -0.110309	           -0.327305	           -0.185165	           -0.047446	           -0.232311	            0.006130	           -0.833667	           -0.074885	           -0.075758	           -0.037938
            2.504000	            0.091929	            0.540225	            0.139659	           -0.233013	            0.005581	           -0.255695	            0.219308	           -0.074261	            0.097018	           -0.374093	           -0.185836	            0.093359	           -0.232311	            0.006130	           -0.833667	           -0.131114	           -0.104522	            0.018535
            2.504500	           -0.459358	            0.722350	           -0.316762	           -0.233013	            0.005581	           -0.255695	            0.238357	           -0.055475	           -0.057999	           -0.375484	            0.182962	           -0.046112	           -0.232311	            0.006130	           -0.833667	           -0.093799	           -0.038083	           -0.018945
            2.505000	           -0.229137	            1.441491	            0.144320	           -0.233013	            0.005581	           -0.255695	            0.180776	           -0.064527	           -0.066945	           -0.420943	           -0.186006	            0.093378	           -0.232311	            0.006130	           -0.833667	           -0.056227	           -0.047131	           -0.094396
            2.505500	           -0.321389	            0.180990	           -0.181854	           -0.233013	            0.005581	           -0.255695	            0.251677	           -0.083215	           -0.033469	           -0.561493	           -0.186513	            0.093438	           -0.232311	            0.006130	           -0.833667	           -0.093789	           -0.047334	           -0.075530
            2.506000	           -0.274782	            0.359888	            0.139796	           -0.233013	            0.005581	           -0.255695	            0.143972	           -0.083123	           -0.050051	           -0.047412	            0.183142	            0.235317	           -0.232311	            0.006130	           -0.833667	           -0.093551	           -0.104319	           -0.000331
            2.506500	           -0.183602	            1.261824	            0.005866	           -0.233013	            0.005581	           -0.255695	            0.224351	           -0.055340	           -0.046254	           -0.370065	           -1.291061	            0.183272	           -0.232311	            0.006130	           -0.833667	           -0.112516	           -0.057056	           -0.019005
            2.507000	           -0.321164	            1.442063	            0.006980	           -0.233013	            0.005581	           -0.255695	            0.149271	           -0.046416	            0.004494	           -0.422917	            0.366272	            0.142278	           -0.232311	            0.006130	           -0.833667	           -0.225220	           -0.057530	           -0.000106
            2.507500	           -0.137142	            1.621185	            0.282433	           -0.233013	            0.005581	           -0.255695	            0.118764	           -0.046489	            0.049978	           -0.325914	           -0.553964	            0.092025	           -0.232311	            0.006130	           -0.833667	           -0.187743	           -0.029104	            0.018829
            2.508000	           -0.274360	            0.539368	            0.323993	           -0.233013	            0.005581	           -0.255695	            0.154942	           -0.055626	            0.006427	           -0.330628	            0.735577	           -0.044160	           -0.232311	            0.006130	           -0.833667	           -0.150290	           -0.009659	           -0.094221
            2.508500	           -0.412018	           -0.001063	            0.230304	           -0.233013	            0.005581	           -0.255695	            0.253053	           -0.092647	            0.000180	           -0.235640	            0.367953	           -0.139371	           -0.232311	            0.006130	           -0.833667	           -0.093704	           -0.066374	           -0.037897
            2.509000	           -0.412233	            1.801397	            0.283889	           -0.233013	            0.005581	           -0.255695	            0.155982	           -0.074016	           -0.037159	           -0.562781	            0.181449	            0.188609	           -0.232311	            0.006130	           -0.833667	           -0.187478	           -0.104658	           -0.000291
            2.509500	           -0.182934	            0.720044	            0.232827	           -0.233013	            0.005581	           -0.255695	            0.083618	           -0.092494	           -0.008449	            0.048885	           -0.552611	            0.091865	           -0.232311	            0.006130	           -0.833667	           -0.206399	           -0.076099	           -0.075583
            2.510000	           -0.320301	            1.080156	            0.326426	           -0.233013	            0.005581	           -0.255695	            0.135923	           -0.120516	            0.041819	           -0.329217	            0.366610	            0.142238	           -0.232311	            0.006130	           -0.833667	           -0.093763	           -0.056719	           -0.094413
            2.510500	           -0.274797	           -0.180712	            0.091622	           -0.233013	            0.005581	           -0.255695	            0.146460	           -0.074203	            0.025192	           -0.329902	            0.550926	            0.095967	           -0.232311	            0.006130	           -0.833667	           -0.187675	           -0.048009	            0.018761
            2.511000	           -0.275028	            1.081148	            0.097032	           -0.233013	            0.005581	           -0.255695	            0.126773	           -0.018585	           -0.012161	           -0.562260	           -0.001528	           -0.140545	           -0.232311	            0.006130	           -0.833667	           -0.168795	           -0.076232	           -0.000198
            2.511500	           -0.549921	            0.179766	            0.093850	           -0.233013	            0.005581	           -0.255695	            0.164973	           -0.083570	            0.013365	           -0.185282	           -0.554126	            0.279677	           -0.232311	            0.006130	           -0.833667	           -0.150104	           -0.047873	            0.018745
            2.512000	           -0.366258	            1.080344	            0.280683	           -0.233013	            0.005581	           -0.255695	            0.175280	           -0.138776	           -0.016706	           -0.375320	            0.181623	            0.329313	           -0.232311	            0.006130	           -0.833667	           -0.168905	           -0.056990	           -0.094381
